<?xml version="1.0" encoding="UTF-8" standalone="no"?>
<svg xmlns:dc="http://purl.org/dc/elements/1.1/" xmlns:cc="http://creativecommons.org/ns#" xmlns:rdf="http://www.w3.org/1999/02/22-rdf-syntax-ns#" xmlns:svg="http://www.w3.org/2000/svg" xmlns="http://www.w3.org/2000/svg" id="svg1127" version="1.1" viewBox="0 0 264.5833272454602 205.8480999938993" height="778.008544921875" width="1000">
 <defs id="defs1121" />
 <metadata id="metadata1124">
  <rdf:RDF>
   <cc:Work rdf:about="">
    <dc:format>image/svg+xml</dc:format>
    <dc:type rdf:resource="http://purl.org/dc/dcmitype/StillImage" />
    <dc:title></dc:title>
   </cc:Work>
  </rdf:RDF>
 </metadata>
 <g transform="translate(-37.89211256607142,66.31653780244121)" id="layer1">
  <g id="g1099" transform="matrix(0.7248858368049041,0,0,0.7248858368049041,80.6059771550519,-299.0870255364036)">
   <path id="path44961" d="M 100.95352,594.4464799999999 -25.981427,467.43399 C -28.447538,464.98339 -28.447538,460.95075 -25.996937,458.50015 L 101.17066,331.51867 141.31089,331.45667 268.47849,458.50019 C 270.92909,460.95079 270.92909,464.9834300000001 268.47849,467.43403 L 141.40395,594.5085599999996 100.95352,594.4465599999997" style="fill:#fff200" />
   <path id="path44963" d="M -58.924954,492.68449 V 433.49781 H -24.895717 C -8.780687099999996,433.49781 -3.848464199999999,437.8561599999999 -3.848464199999999,449.61284 -3.848464199999999,456.0185299999999 -6.733349299999999,459.9581 -13.216586,462.26911 -13.71291,462.42421 -14.209234,462.59482 -14.783109,462.76544 -14.286785,462.76544 -13.71291,462.92054 -13.309647,463.09115 -8.532524999999999,464.40951 -6.237025,466.70501 -4.996214200000001,471.14091 -4.670501300000001,472.38172 -4.499889900000002,472.78498 -4.499889900000002,473.12621 L -4.096626300000004,475.99558 -2.6231635,488.40369 C -2.5456125,489.07063 -2.3750014,489.7996 -1.4599034,492.68449 H -25.640204 C -25.888366,491.86245 -26.043467,491.04041 -26.29163,490.21838 -27.113667,486.51145 -27.53244,483.79718 -27.687542,482.07555 L -27.935704,478.95802 -28.106315,477.06578 C -28.68019,472.8625299999999 -29.75039,471.71478 -33.116089,471.63723 H -33.93812600000001 L -35.25648800000001,471.71483 V 492.68454 H -58.924954 Z M -32.867927,457.41444 H -31.89078799999999 C -28.18386599999999,457.33684 -26.12101799999999,455.44465 -26.04346699999999,452.73038 -25.96591699999999,449.36468 -27.53243999999999,447.62754 -30.07610199999999,447.3018300000001 L -31.05324099999999,447.1467300000001 H -35.83036299999999 V 457.4144400000001 H -32.867927" style="fill:#030001" />
   <path id="path44965" d="M 2.4021202,492.68449 V 433.49781 H 48.513752 V 448.60468 H 25.72936299999999 V 455.13445 H 47.614164 V 470.45846 H 25.72936299999999 V 477.48455 H 48.668853 V 492.68449 H 2.402120199999999" style="fill:#030001" />
   <path id="path44967" d="M 50.979863,492.68449 67.498157,433.49781 H 99.48005499999999 L 115.99835,492.68449 H 92.82620700000001 L 90.93397100000001,483.56453 H 76.04424100000001 L 74.16751499999999,492.68449 Z M 89.119285,468.92296 83.442576,448.69774 78.43280199999999,468.92296 H 89.119285" style="fill:#030001" />
   <path id="path44969" d="M 119.78282,492.68449 V 433.49781 H 144.61455 V 477.31394 H 166.46833 V 492.6844899999999 H 119.78282" style="fill:#030001" />
   <path id="path44971" d="M 171.40055,433.49781 H 196.23228 V 492.68449 H 171.40055 Z" style="fill:#030001" />
   <path id="path44973" d="M 282.63924,433.49781 275.98539,455.02588 269.16093,433.49781 H 201.1645 V 448.86836 H 215.38729 V 492.68449 H 240.20351 V 448.86836 H 252.79774 L 263.49973,471.8854 V 492.68449 H 288.48656 V 472.05601 L 306.07505,433.49781 H 282.63924" style="fill:#030001" />
   <path id="path44975" d="M 147.1427,501.13751 141.71415,531.4443099999997 H 140.78354 L 135.355,501.13751 H 80.72830199999998 V 512.8011299999999 H 91.50784599999998 V 546.0393499999994 H 110.35266 V 512.8011299999999 H 120.21711 L 128.80972,546.0393499999994 H 153.62594 L 165.28956,501.1375099999999 H 147.1427" style="fill:#030001" />
   <path id="path44977" d="M 235.16272,425.12234 138.06927,328.0444 C 128.82523,318.80036 113.7804,318.80036 104.53636,328.0599 L 7.411893799999988,425.12233 H 29.25016399999999 L 115.34692,338.85496 C 116.92896,337.27292 119.03834,336.40436 121.30282,336.40436 123.56729,336.40436 125.69218,337.27292 127.44483,339.11863 L 213.43302,425.12233 H 235.16272 Z M 213.60363,501.07547 127.25871,587.3583499999997 C 125.69218,588.94038 123.56729,589.8089499999997 121.30282,589.8089499999997 119.03834,589.8089499999997 116.92896,588.94038 115.34692,587.3583499999997 L 29.07955200000001,501.07547 H 7.629035700000009 L 104.53636,598.1689099999997 C 109.00328,602.6358299999999 114.95917,605.08644 121.30282,605.08644 127.64646,605.08644 133.60235,602.63583 138.06927,598.1689099999997 L 234.96108,501.07547 H 213.60363" style="fill:#030001" />
   <path id="path44979" d="M 144.8472,321.77831 C 144.8472,321.77831 123.10199,367.02137 111.98122,392.05473 111.98122,392.05473 126.3281,384.02048 139.93049,380.1429499999999 139.93049,380.1429499999999 129.58523,395.6685899999999 108.35185,445.4406199999999 108.35185,445.4406199999999 149.51575,395.3583899999999 208.0820199999999,351.7128699999999 208.0820199999999,351.7128699999999 189.7025099999999,351.0149099999999 179.34174,352.4263399999999 179.34174,352.4263399999999 188.84945,339.7080299999999 215.0926,321.8093299999999 L 144.8471999999999,321.7783299999999" style="fill:#030001" />
   <path id="path44981" d="M 152.01288,331.58071 C 138.59662,356.89325 139.58926,354.76837 130.34522,375.58297 130.34522,375.58297 146.01046,370.2785 157.8602,368.66545 157.8602,368.66545 151.87329,374.4042 130.40726,412.37301 130.40726,412.37301 160.88468,376.21888 184.90988,359.00263 184.90988,359.00263 173.75809,360.1658899999999 162.65284,361.7014 162.65284,361.7014 171.50912,345.77249 187.22089,331.58071 H 152.01288" style="fill:white" />
  </g>
 </g>
</svg>
